<svg id="visual" viewBox="0 0 960 300" width="960" height="300" xmlns="http://www.w3.org/2000/svg" xmlns:xlink="http://www.w3.org/1999/xlink" version="1.1"><rect x="0" y="0" width="960" height="300" fill="#001220"></rect><path d="M0 202L11.5 206.2C23 210.3 46 218.7 68.8 224C91.7 229.3 114.3 231.7 137.2 232.7C160 233.7 183 233.3 205.8 236.3C228.7 239.3 251.3 245.7 274.2 246.7C297 247.7 320 243.3 342.8 233C365.7 222.7 388.3 206.3 411.2 198.3C434 190.3 457 190.7 480 192C503 193.3 526 195.7 548.8 200.3C571.7 205 594.3 212 617.2 211.7C640 211.3 663 203.7 685.8 205.2C708.7 206.7 731.3 217.3 754.2 218.2C777 219 800 210 822.8 201.8C845.7 193.7 868.3 186.3 891.2 183.2C914 180 937 181 948.5 181.5L960 182L960 0L948.5 0C937 0 914 0 891.2 0C868.3 0 845.7 0 822.8 0C800 0 777 0 754.2 0C731.3 0 708.7 0 685.8 0C663 0 640 0 617.2 0C594.3 0 571.7 0 548.8 0C526 0 503 0 480 0C457 0 434 0 411.2 0C388.3 0 365.7 0 342.8 0C320 0 297 0 274.2 0C251.3 0 228.7 0 205.8 0C183 0 160 0 137.2 0C114.3 0 91.7 0 68.8 0C46 0 23 0 11.5 0L0 0Z" fill="#fa7268"></path><path d="M0 205L11.5 201.2C23 197.3 46 189.7 68.8 188C91.7 186.3 114.3 190.7 137.2 189.7C160 188.7 183 182.3 205.8 174.3C228.7 166.3 251.3 156.7 274.2 158C297 159.3 320 171.7 342.8 179.2C365.7 186.7 388.3 189.3 411.2 188.7C434 188 457 184 480 181.2C503 178.3 526 176.7 548.8 174.3C571.7 172 594.3 169 617.2 162.5C640 156 663 146 685.8 141.3C708.7 136.7 731.3 137.3 754.2 140.7C777 144 800 150 822.8 157.8C845.7 165.7 868.3 175.3 891.2 172.3C914 169.3 937 153.7 948.5 145.8L960 138L960 0L948.5 0C937 0 914 0 891.2 0C868.3 0 845.7 0 822.8 0C800 0 777 0 754.2 0C731.3 0 708.7 0 685.8 0C663 0 640 0 617.2 0C594.3 0 571.7 0 548.8 0C526 0 503 0 480 0C457 0 434 0 411.2 0C388.3 0 365.7 0 342.8 0C320 0 297 0 274.2 0C251.3 0 228.7 0 205.8 0C183 0 160 0 137.2 0C114.3 0 91.7 0 68.8 0C46 0 23 0 11.5 0L0 0Z" fill="#f36567"></path><path d="M0 130L11.5 134.8C23 139.7 46 149.3 68.8 150.7C91.7 152 114.3 145 137.2 146C160 147 183 156 205.8 159.3C228.7 162.7 251.3 160.3 274.2 162.7C297 165 320 172 342.8 166.5C365.7 161 388.3 143 411.2 138.8C434 134.7 457 144.3 480 146.7C503 149 526 144 548.8 149.3C571.7 154.7 594.3 170.3 617.2 173.5C640 176.7 663 167.3 685.8 166.8C708.7 166.3 731.3 174.7 754.2 176.8C777 179 800 175 822.8 170.7C845.7 166.3 868.3 161.7 891.2 151.8C914 142 937 127 948.5 119.5L960 112L960 0L948.5 0C937 0 914 0 891.2 0C868.3 0 845.7 0 822.8 0C800 0 777 0 754.2 0C731.3 0 708.7 0 685.8 0C663 0 640 0 617.2 0C594.3 0 571.7 0 548.8 0C526 0 503 0 480 0C457 0 434 0 411.2 0C388.3 0 365.7 0 342.8 0C320 0 297 0 274.2 0C251.3 0 228.7 0 205.8 0C183 0 160 0 137.2 0C114.3 0 91.7 0 68.8 0C46 0 23 0 11.5 0L0 0Z" fill="#eb5967"></path><path d="M0 134L11.5 136.7C23 139.3 46 144.7 68.8 141.7C91.7 138.7 114.3 127.3 137.2 122.3C160 117.3 183 118.7 205.8 120C228.7 121.3 251.3 122.7 274.2 117.5C297 112.3 320 100.7 342.8 101C365.7 101.3 388.3 113.7 411.2 118.5C434 123.3 457 120.7 480 114.5C503 108.3 526 98.7 548.8 102.8C571.7 107 594.3 125 617.2 131.8C640 138.7 663 134.3 685.8 132.8C708.7 131.3 731.3 132.7 754.2 132C777 131.3 800 128.7 822.8 130C845.7 131.3 868.3 136.7 891.2 133C914 129.3 937 116.7 948.5 110.3L960 104L960 0L948.5 0C937 0 914 0 891.2 0C868.3 0 845.7 0 822.8 0C800 0 777 0 754.2 0C731.3 0 708.7 0 685.8 0C663 0 640 0 617.2 0C594.3 0 571.7 0 548.8 0C526 0 503 0 480 0C457 0 434 0 411.2 0C388.3 0 365.7 0 342.8 0C320 0 297 0 274.2 0C251.3 0 228.7 0 205.8 0C183 0 160 0 137.2 0C114.3 0 91.7 0 68.8 0C46 0 23 0 11.5 0L0 0Z" fill="#e34c67"></path><path d="M0 76L11.5 82.2C23 88.3 46 100.7 68.8 108C91.7 115.3 114.3 117.7 137.2 117.7C160 117.7 183 115.3 205.8 108.5C228.7 101.7 251.3 90.3 274.2 91.2C297 92 320 105 342.8 107.3C365.7 109.7 388.3 101.3 411.2 93.3C434 85.3 457 77.7 480 77.3C503 77 526 84 548.8 85.5C571.7 87 594.3 83 617.2 80.3C640 77.7 663 76.3 685.8 81.2C708.7 86 731.3 97 754.2 100C777 103 800 98 822.8 91.2C845.7 84.3 868.3 75.7 891.2 75.7C914 75.7 937 84.3 948.5 88.7L960 93L960 0L948.5 0C937 0 914 0 891.2 0C868.3 0 845.7 0 822.8 0C800 0 777 0 754.2 0C731.3 0 708.7 0 685.8 0C663 0 640 0 617.2 0C594.3 0 571.7 0 548.8 0C526 0 503 0 480 0C457 0 434 0 411.2 0C388.3 0 365.7 0 342.8 0C320 0 297 0 274.2 0C251.3 0 228.7 0 205.8 0C183 0 160 0 137.2 0C114.3 0 91.7 0 68.8 0C46 0 23 0 11.5 0L0 0Z" fill="#da3f67"></path><path d="M0 85L11.5 79.5C23 74 46 63 68.8 62.5C91.7 62 114.3 72 137.2 72.2C160 72.3 183 62.7 205.8 56.3C228.7 50 251.3 47 274.2 48.2C297 49.3 320 54.7 342.8 56.8C365.7 59 388.3 58 411.2 59C434 60 457 63 480 66.7C503 70.3 526 74.7 548.8 73.5C571.7 72.3 594.3 65.7 617.2 59.5C640 53.3 663 47.7 685.8 46.5C708.7 45.3 731.3 48.7 754.2 50.3C777 52 800 52 822.8 55.8C845.7 59.7 868.3 67.3 891.2 72.2C914 77 937 79 948.5 80L960 81L960 0L948.5 0C937 0 914 0 891.2 0C868.3 0 845.7 0 822.8 0C800 0 777 0 754.2 0C731.3 0 708.7 0 685.8 0C663 0 640 0 617.2 0C594.3 0 571.7 0 548.8 0C526 0 503 0 480 0C457 0 434 0 411.2 0C388.3 0 365.7 0 342.8 0C320 0 297 0 274.2 0C251.3 0 228.7 0 205.8 0C183 0 160 0 137.2 0C114.3 0 91.7 0 68.8 0C46 0 23 0 11.5 0L0 0Z" fill="#d03267"></path><path d="M0 46L11.5 41.7C23 37.3 46 28.7 68.8 27.7C91.7 26.7 114.3 33.3 137.2 37C160 40.7 183 41.3 205.8 39.3C228.7 37.3 251.3 32.7 274.2 29.2C297 25.7 320 23.3 342.8 25.3C365.7 27.3 388.3 33.7 411.2 34.5C434 35.3 457 30.7 480 29C503 27.3 526 28.7 548.8 32.8C571.7 37 594.3 44 617.2 47C640 50 663 49 685.8 48C708.7 47 731.3 46 754.2 45.2C777 44.3 800 43.7 822.8 41.8C845.7 40 868.3 37 891.2 34.3C914 31.7 937 29.3 948.5 28.2L960 27L960 0L948.5 0C937 0 914 0 891.2 0C868.3 0 845.7 0 822.8 0C800 0 777 0 754.2 0C731.3 0 708.7 0 685.8 0C663 0 640 0 617.2 0C594.3 0 571.7 0 548.8 0C526 0 503 0 480 0C457 0 434 0 411.2 0C388.3 0 365.7 0 342.8 0C320 0 297 0 274.2 0C251.3 0 228.7 0 205.8 0C183 0 160 0 137.2 0C114.3 0 91.7 0 68.8 0C46 0 23 0 11.5 0L0 0Z" fill="#c62368"></path></svg>